<?xml version="1.0" encoding="UTF-8" standalone="no"?>
<!-- Created with Inkscape (http://www.inkscape.org/) -->

<svg
   xmlns:dc="http://purl.org/dc/elements/1.1/"
   xmlns:cc="http://creativecommons.org/ns#"
   xmlns:rdf="http://www.w3.org/1999/02/22-rdf-syntax-ns#"
   xmlns:svg="http://www.w3.org/2000/svg"
   xmlns="http://www.w3.org/2000/svg"
   xmlns:sodipodi="http://sodipodi.sourceforge.net/DTD/sodipodi-0.dtd"
   xmlns:inkscape="http://www.inkscape.org/namespaces/inkscape"
   width="203.16757mm"
   height="200.67311mm"
   viewBox="0 0 203.16757 200.67311"
   version="1.1"
   id="svg8"
   inkscape:version="0.92.2 (5c3e80d, 2017-08-06)"
   sodipodi:docname="Orbal Menu.svg">
  <defs
     id="defs2" />
  <sodipodi:namedview
     id="base"
     pagecolor="#ffffff"
     bordercolor="#666666"
     borderopacity="1.0"
     inkscape:pageopacity="0.0"
     inkscape:pageshadow="2"
     inkscape:zoom="0.35"
     inkscape:cx="-1314.1469"
     inkscape:cy="774.16702"
     inkscape:document-units="px"
     inkscape:current-layer="layer1"
     showgrid="true"
     inkscape:window-width="1920"
     inkscape:window-height="986"
     inkscape:window-x="-11"
     inkscape:window-y="-11"
     inkscape:window-maximized="1"
     inkscape:snap-smooth-nodes="true" />
  <metadata
     id="metadata5">
    <rdf:RDF>
      <cc:Work
         rdf:about="">
        <dc:format>image/svg+xml</dc:format>
        <dc:type
           rdf:resource="http://purl.org/dc/dcmitype/StillImage" />
        <dc:title></dc:title>
      </cc:Work>
    </rdf:RDF>
  </metadata>
  <g
     inkscape:label="Layer 1"
     inkscape:groupmode="layer"
     id="layer1"
     transform="translate(-6.5685909,-53.965486)">
    <ellipse
       style="opacity:0.84542583;fill:none;fill-opacity:1;stroke:#000000;stroke-width:0.79374999;stroke-miterlimit:4;stroke-dasharray:none;stroke-dashoffset:0;stroke-opacity:1;paint-order:fill markers stroke"
       id="path4733"
       cx="-608.18414"
       cy="157.47343"
       rx="7.9375"
       ry="7.9374981" />
    <ellipse
       style="opacity:0.84542583;fill:none;fill-opacity:1;stroke:#000000;stroke-width:0.79374999;stroke-miterlimit:4;stroke-dasharray:none;stroke-dashoffset:0;stroke-opacity:1;paint-order:fill markers stroke"
       id="path4735"
       cx="-608.18414"
       cy="157.47343"
       rx="15.848526"
       ry="15.848521" />
    <ellipse
       style="opacity:0.84542583;fill:none;fill-opacity:1;stroke:#000000;stroke-width:0.79374999;stroke-miterlimit:4;stroke-dasharray:none;stroke-dashoffset:0;stroke-opacity:1;paint-order:fill markers stroke"
       id="path4737"
       cx="-608.18414"
       cy="157.47343"
       rx="23.779602"
       ry="23.780752" />
    <ellipse
       style="opacity:0.84542583;fill:none;fill-opacity:1;stroke:#000000;stroke-width:0.79374999;stroke-miterlimit:4;stroke-dasharray:none;stroke-dashoffset:0;stroke-opacity:1;paint-order:fill markers stroke"
       id="path4739"
       cx="-608.18414"
       cy="157.47343"
       rx="39.628128"
       ry="39.631706" />
    <circle
       style="opacity:0.84542583;fill:none;fill-opacity:1;stroke:#000000;stroke-width:0.79374999;stroke-miterlimit:4;stroke-dasharray:none;stroke-dashoffset:0;stroke-opacity:1;paint-order:fill markers stroke"
       id="path4741"
       cx="-608.18414"
       cy="157.47343"
       r="63.417709" />
    <ellipse
       style="opacity:0.84542583;fill:none;fill-opacity:1;stroke:#000000;stroke-width:0.79374999;stroke-miterlimit:4;stroke-dasharray:none;stroke-dashoffset:0;stroke-opacity:1;paint-order:fill markers stroke"
       id="path4745"
       cx="-608.18414"
       cy="157.47343"
       rx="103.04942"
       ry="103.05771" />
    <g
       id="g1112"
       style="fill:#5fbcd3"
       transform="rotate(-158.56381,-99.44239,69.301471)">
      <path
         transform="scale(0.26458333)"
         inkscape:connector-curvature="0"
         id="path1085"
         d="m -1101.4081,98.729278 c -1.65,-0.382225 -5.8125,-0.942885 -9.25,-1.24591 -22.0951,-1.947745 -47.9623,-12.540285 -68.5,-28.05056 -29.1976,-22.05034 -49.4126,-54.048175 -56.5063,-89.442315 -2.223,-11.0916 -2.5667,-15.103335 -2.5923,-30.25139 -0.02,-11.789515 0.1431,-15.10524 1.0325,-21 3.9671,-26.295265 14.2187,-50.168773 30.5956,-71.250003 4.6336,-5.96461 14.7486,-16.3907 20.9705,-21.61541 35.4232,-29.74596 81.662,-41.43861 126.946,-32.10148 20.9466,4.31897 41.6177,13.67765 59.18023,26.79334 42.61994,31.82857 65.31897,85.277638 58.57411,137.923553 -3.26112,25.4541548 -12.87248,49.597125 -27.86713,70 -23.7684,32.341135 -58.75481,53.356055 -99.08321,59.515245 -9.0224,1.37795 -28.8306,1.806595 -33.5,0.72493 z"
         style="opacity:1;fill:#5fbcd3;fill-opacity:1;stroke:#000000;stroke-width:0.05;stroke-miterlimit:4;stroke-dasharray:none;stroke-dashoffset:0;stroke-opacity:1;paint-order:fill markers stroke" />
      <path
         transform="scale(0.26458333)"
         inkscape:connector-curvature="0"
         id="path1087"
         d="m -1254.8586,80.139593 c -19.1053,-18.253265 -45.061,-31.891395 -71.0495,-37.33227 l -5.5,-1.15146 7,-0.30388 c 23.177,-1.00614 43.2678,-9.867395 59.7566,-26.356265 13.44,-13.4399477 22.0356,-29.932256 25.1509,-48.256615 l 0.68,-4 0.3729,3.5 c 2.8336,26.5984288 13.5143,53.35076 29.9414,74.99567 1.2504,1.64762 2.2188,3.0504 2.1519,3.117285 -0.067,0.06689 -1.7019,-0.666705 -3.6334,-1.63021 -8.5201,-4.250145 -18.1181,-4.23251 -27.0211,0.04965 -4.7481,2.28374 -10.6609,7.97123 -13.0581,12.560625 -2.1245,4.06711 -3.5911,9.95108 -3.5911,14.40698 0,3.75343 1.3656,10.072865 2.759,12.767325 0.4481,0.866585 0.7419,1.645255 0.6529,1.73038 -0.089,0.08513 -2.1646,-1.758625 -4.6124,-4.097215 z"
         style="opacity:1;fill:#5fbcd3;fill-opacity:1;stroke:#000000;stroke-width:0.05;stroke-miterlimit:4;stroke-dasharray:none;stroke-dashoffset:0;stroke-opacity:1;paint-order:fill markers stroke" />
      <path
         transform="scale(0.26458333)"
         inkscape:connector-curvature="0"
         id="path1089"
         d="m -1230.5503,98.479778 c -10.4133,-2.72826 -18.7874,-10.94007 -21.6605,-21.240675 -0.898,-3.219455 -0.898,-11.780546 0,-15 2.2118,-7.92955 8.5561,-15.638735 15.6374,-19.001665 8.8883,-4.221008 17.6926,-4.196077 26.4153,0.0748 5.1669,2.529832 10.647,8.010015 13.1769,13.176865 5.8188,11.884202 3.696,24.717902 -5.6315,34.04538 -7.6359,7.63592 -17.9369,10.565467 -27.9376,7.945295 z"
         style="opacity:1;fill:#5fbcd3;fill-opacity:1;stroke:#000000;stroke-width:0.05;stroke-miterlimit:4;stroke-dasharray:none;stroke-dashoffset:0;stroke-opacity:1;paint-order:fill markers stroke" />
      <path
         transform="scale(0.26458333)"
         inkscape:connector-curvature="0"
         id="path1091"
         d="m -1208.3302,174.83108 c -0.4587,-5.9674 -2.1503,-15.54861 -4.0798,-23.10791 -4.4997,-17.62832 -13.9543,-37.37698 -24.8735,-51.95522 -1.8419,-2.459134 -3.2806,-4.539521 -3.197,-4.623083 0.083,-0.08356 1.4009,0.524529 2.9273,1.351311 1.5265,0.826782 4.5259,1.95092 6.6653,2.498083 15.2628,3.903579 30.7441,-4.500565 36.1073,-19.601209 1.1219,-3.158858 1.2978,-4.466918 1.2978,-9.653949 0,-6.02686 -0.245,-7.190671 -2.947,-14 -0.2182,-0.55 1.7224,1.027833 4.3125,3.506296 14.0734,13.466876 31.5639,24.334285 50.6226,31.453482 5.138,1.919247 15.2101,4.939775 18.58,5.57197 2.6698,0.500849 1.2597,0.977297 -4.0696,1.375133 -11.776,0.879083 -26.1036,5.571416 -36.9284,12.094136 -23.2344,14.00047 -38.9091,37.1468 -43.0015,63.49898 -0.4698,3.025 -0.9083,5.56025 -0.9746,5.63389 -0.066,0.0736 -0.2648,-1.74522 -0.4414,-4.04191 z"
         style="opacity:1;fill:#5fbcd3;fill-opacity:1;stroke:#000000;stroke-width:0.05;stroke-miterlimit:4;stroke-dasharray:none;stroke-dashoffset:0;stroke-opacity:1;paint-order:fill markers stroke" />
      <path
         transform="scale(0.26458333)"
         inkscape:connector-curvature="0"
         id="path1093"
         d="m -1366.4081,338.69649 c -1.1,-0.10911 -4.475,-0.43435 -7.5,-0.72276 -10.674,-1.01765 -24.5984,-4.30609 -36.1232,-8.53094 -15.1945,-5.57016 -34.1369,-16.78916 -44.1468,-26.14678 -1.7985,-1.6813 -4.9072,-4.49087 -6.9083,-6.24348 -7.239,-6.34007 -17.2537,-18.63527 -23.7264,-29.12931 -11.1961,-18.15184 -18.0992,-37.68715 -21.1785,-59.93412 -1.2016,-8.68129 -1.2016,-28.3187 0,-37 4.8919,-35.34258 19.6984,-64.87665 44.6333,-89.028802 43.7348,-42.361839 109.0355,-53.726344 164.8252,-28.685083 40.7049,18.270458 71.8114,54.854445 83.0872,97.718005 11.7399,44.62796 2.6467,91.56116 -24.8514,128.26589 -5.5583,7.41936 -11.9761,14.40537 -16.8746,18.36869 -2.3301,1.88522 -5.924,5.06747 -7.9865,7.07166 -6.3005,6.1224 -15.8326,12.44595 -27.7572,18.41396 -15.3174,7.66603 -30.6713,12.34761 -47.9928,14.63353 -5.7454,0.75822 -23.3134,1.36483 -27.5,0.94954 z"
         style="opacity:1;fill:#5fbcd3;fill-opacity:1;stroke:#000000;stroke-width:0.05;stroke-miterlimit:4;stroke-dasharray:none;stroke-dashoffset:0;stroke-opacity:1;paint-order:fill markers stroke" />
      <path
         transform="scale(0.26458333)"
         inkscape:connector-curvature="0"
         id="path1095"
         d="m -1449.1581,429.77195 c 0,-0.17213 1.2647,-1.80371 2.8103,-3.62575 14.3337,-16.8964 22.2182,-41.81479 20.2533,-64.00903 -1.6128,-18.21652 -7.8236,-34.50035 -18.4118,-48.27307 -1.2156,-1.58125 -2.0902,-2.875 -1.9436,-2.875 0.1467,0 2.5786,1.54737 5.4042,3.43859 20.6963,13.85207 45.0417,22.41218 70.0344,24.62484 l 6.7792,0.60018 -3.1169,1.04893 c -12.1323,4.08288 -20.7917,16.07241 -20.7917,28.78746 0,12.97288 9.0802,24.98299 21.9507,29.0333 l 2.7819,0.87549 -3,0.0497 c -11.4978,0.19052 -30.1862,4.0721 -43.5879,9.05321 -11.9955,4.45844 -27.7787,12.94564 -36.7871,19.78181 -1.3062,0.99127 -2.375,1.66147 -2.375,1.48934 z"
         style="opacity:1;fill:#5fbcd3;fill-opacity:1;stroke:#000000;stroke-width:0.05;stroke-miterlimit:4;stroke-dasharray:none;stroke-dashoffset:0;stroke-opacity:1;paint-order:fill markers stroke" />
      <path
         transform="scale(0.26458333)"
         inkscape:connector-curvature="0"
         id="path1097"
         d="m -1363.1581,398.64391 c -14.2406,-2.38114 -25.4418,-16.77601 -24.2909,-31.21688 1.0223,-12.82704 9.4472,-23.02889 22.0689,-26.72357 3.545,-1.0377 10.2858,-1.1521 14.222,-0.24138 12.5916,2.91329 22.0655,14.21989 22.8589,27.28084 0.8607,14.16814 -8.5958,26.93166 -22.5889,30.48867 -2.738,0.69597 -9.2624,0.91522 -12.27,0.41232 z"
         style="opacity:1;fill:#5fbcd3;fill-opacity:1;stroke:#000000;stroke-width:0.05;stroke-miterlimit:4;stroke-dasharray:none;stroke-dashoffset:0;stroke-opacity:1;paint-order:fill markers stroke" />
      <path
         transform="scale(0.26458333)"
         inkscape:connector-curvature="0"
         id="path1099"
         d="m -1267.3837,429.52855 c -0.6181,-1.00008 -13.5721,-9.37653 -19.0188,-12.29807 -9.6519,-5.17722 -20.7691,-9.69466 -30.6367,-12.44914 -10.1291,-2.82745 -24.8317,-5.2623 -32.104,-5.31663 l -3.2649,-0.0244 4,-1.37411 c 8.1035,-2.78376 13.9225,-7.86756 17.4994,-15.2885 3.4207,-7.09679 4.1276,-13.69948 2.252,-21.03302 -2.5453,-9.95203 -10.4339,-18.17709 -20.3872,-21.2567 l -2.6642,-0.8243 6.7899,-0.60112 c 12.9026,-1.14231 25.9762,-3.99836 38.026,-8.30717 8.8258,-3.15594 23.1627,-10.31791 30.7341,-15.35322 3.4375,-2.28607 6.475,-4.25113 6.75,-4.3668 0.275,-0.11566 -0.3124,0.78286 -1.3053,1.99671 -5.428,6.63563 -11.4199,17.78934 -14.4906,26.97343 -6.3681,19.04628 -6.4185,38.65815 -0.1479,57.48358 3.3461,10.04557 9.4916,21.12245 15.9286,28.71033 1.5706,1.85131 2.7452,3.47631 2.6104,3.61111 -0.1348,0.1348 -0.3916,0.008 -0.5708,-0.28199 z"
         style="opacity:1;fill:#5fbcd3;fill-opacity:1;stroke:#000000;stroke-width:0.05;stroke-miterlimit:4;stroke-dasharray:none;stroke-dashoffset:0;stroke-opacity:1;paint-order:fill markers stroke" />
      <path
         transform="scale(0.26458333)"
         inkscape:connector-curvature="0"
         id="path1101"
         d="m -1375.1581,697.72967 c -41.6588,-5.1297 -78.1602,-26.39693 -103.1266,-60.08587 -14.5419,-19.62241 -23.6142,-41.83445 -27.6328,-67.6547 -1.1151,-7.16454 -1.543,-26.12145 -0.775,-34.3352 3.3376,-35.69736 19.0612,-68.6161 44.6342,-93.4458 7.7207,-7.49634 12.7242,-11.52623 21.9007,-17.6391 44.7135,-29.78563 101.7801,-33.02928 150.0641,-8.5296 28.9808,14.70509 51.8065,37.87268 66.208,67.1997 10.638,21.66303 15.3533,41.93297 15.3533,66 0,23.65396 -4.6042,43.81819 -14.8419,65 -8.0716,16.70021 -17.1678,29.22646 -30.8979,42.5488 -22.0226,21.36865 -50.1457,35.31436 -81.1361,40.2339 -9.0242,1.43254 -30.7263,1.819 -39.75,0.70787 z"
         style="opacity:1;fill:#5fbcd3;fill-opacity:1;stroke:#000000;stroke-width:0.05;stroke-miterlimit:4;stroke-dasharray:none;stroke-dashoffset:0;stroke-opacity:1;paint-order:fill markers stroke" />
    </g>
  </g>
</svg>
