<?xml version="1.0" encoding="UTF-8" standalone="no"?>
<!-- Created with Inkscape (http://www.inkscape.org/) -->

<svg
   xmlns:dc="http://purl.org/dc/elements/1.1/"
   xmlns:cc="http://creativecommons.org/ns#"
   xmlns:rdf="http://www.w3.org/1999/02/22-rdf-syntax-ns#"
   xmlns:svg="http://www.w3.org/2000/svg"
   xmlns="http://www.w3.org/2000/svg"
   xmlns:sodipodi="http://sodipodi.sourceforge.net/DTD/sodipodi-0.dtd"
   xmlns:inkscape="http://www.inkscape.org/namespaces/inkscape"
   width="79.256142mm"
   height="269.45428mm"
   viewBox="0 0 79.256141 269.45428"
   version="1.1"
   id="svg8"
   inkscape:version="0.92.2 (5c3e80d, 2017-08-06)"
   sodipodi:docname="orbalMenu.svg">
  <defs
     id="defs2" />
  <sodipodi:namedview
     id="base"
     pagecolor="#ffffff"
     bordercolor="#666666"
     borderopacity="1.0"
     inkscape:pageopacity="0.0"
     inkscape:pageshadow="2"
     inkscape:zoom="0.49497475"
     inkscape:cx="521.55375"
     inkscape:cy="377.32991"
     inkscape:document-units="px"
     inkscape:current-layer="layer1"
     showgrid="true"
     inkscape:window-width="1920"
     inkscape:window-height="986"
     inkscape:window-x="-11"
     inkscape:window-y="-11"
     inkscape:window-maximized="1"
     inkscape:snap-smooth-nodes="true" />
  <metadata
     id="metadata5">
    <rdf:RDF>
      <cc:Work
         rdf:about="">
        <dc:format>image/svg+xml</dc:format>
        <dc:type
           rdf:resource="http://purl.org/dc/dcmitype/StillImage" />
        <dc:title />
      </cc:Work>
    </rdf:RDF>
  </metadata>
  <g
     inkscape:label="Layer 1"
     inkscape:groupmode="layer"
     id="layer1"
     transform="translate(280.95701,87.943102)">
    <path
       style="opacity:1;fill:#b3b3b3;fill-opacity:1;stroke:none;stroke-width:1.55533242;stroke-miterlimit:4;stroke-dasharray:none;stroke-dashoffset:0;stroke-opacity:1;paint-order:fill markers stroke"
       d="m -936.93555,-237.09375 a 30,29.999993 0 0 0 -2.12109,0.0762 30,29.999993 0 0 0 -2.97852,0.36133 30,29.999993 0 0 0 -2.92578,0.65625 30,29.999993 0 0 0 -2.8457,0.94531 30,29.999993 0 0 0 -2.73633,1.22461 30,29.999993 0 0 0 -2.60156,1.49219 30,29.999993 0 0 0 -2.43945,1.74414 30,29.999993 0 0 0 -2.25196,1.97852 30,29.999993 0 0 0 -2.04492,2.19531 30,29.999993 0 0 0 -1.81445,2.38672 30,29.999993 0 0 0 -1.56836,2.55664 30,29.999993 0 0 0 -1.30274,2.70117 30,29.999993 0 0 0 -1.02929,2.81641 30,29.999993 0 0 0 -0.74219,2.90625 30,29.999993 0 0 0 -0.44727,2.96484 30,29.999993 0 0 0 -0.15039,2.99414 30,29.999993 0 0 0 0.0762,2.12305 30,29.999993 0 0 0 0.36133,2.97656 30,29.999993 0 0 0 0.65625,2.92578 30,29.999993 0 0 0 0.94532,2.8457 30,29.999993 0 0 0 1.2246,2.73633 30,29.999993 0 0 0 1.49219,2.60156 30,29.999993 0 0 0 1.74414,2.43946 30,29.999993 0 0 0 1.97852,2.25195 30,29.999993 0 0 0 2.19531,2.04492 30,29.999993 0 0 0 2.38672,1.81446 30,29.999993 0 0 0 2.55664,1.56836 30,29.999993 0 0 0 2.70117,1.30468 30,29.999993 0 0 0 2.81641,1.02735 30,29.999993 0 0 0 2.90625,0.74218 30,29.999993 0 0 0 2.96484,0.44727 30,29.999993 0 0 0 2.99414,0.15039 30,29.999993 0 0 0 2.12305,-0.0742 30,29.999993 0 0 0 2.97656,-0.36133 30,29.999993 0 0 0 2.92578,-0.6582 30,29.999993 0 0 0 2.84571,-0.94531 30,29.999993 0 0 0 2.73633,-1.22461 30,29.999993 0 0 0 2.60156,-1.49219 30,29.999993 0 0 0 2.43945,-1.74414 30,29.999993 0 0 0 2.25195,-1.97852 30,29.999993 0 0 0 2.04493,-2.19531 30,29.999993 0 0 0 1.81445,-2.38672 30,29.999993 0 0 0 1.56836,-2.55664 30,29.999993 0 0 0 1.30469,-2.69922 30,29.999993 0 0 0 1.02734,-2.81836 30,29.999993 0 0 0 0.74219,-2.90429 30,29.999993 0 0 0 0.44726,-2.96485 30,29.999993 0 0 0 0.15039,-2.99609 30,29.999993 0 0 0 -0.0742,-2.12109 30,29.999993 0 0 0 -0.36132,-2.97852 30,29.999993 0 0 0 -0.65821,-2.92578 30,29.999993 0 0 0 -0.94531,-2.8457 30,29.999993 0 0 0 -1.22461,-2.73633 30,29.999993 0 0 0 -1.49219,-2.60156 30,29.999993 0 0 0 -1.74414,-2.43946 30,29.999993 0 0 0 -1.97851,-2.25195 30,29.999993 0 0 0 -2.19532,-2.04492 30,29.999993 0 0 0 -2.38671,-1.81446 30,29.999993 0 0 0 -2.55664,-1.56836 30,29.999993 0 0 0 -2.69922,-1.30273 30,29.999993 0 0 0 -2.81836,-1.0293 30,29.999993 0 0 0 -2.9043,-0.74218 30,29.999993 0 0 0 -2.96484,-0.44727 30,29.999993 0 0 0 -2.9961,-0.15039 z"
       id="path1148"
       transform="matrix(0.26458334,0,0,0.26458334,6.5685909,53.965486)"
       inkscape:connector-curvature="0" />
    <path
       style="opacity:1;fill:#b3b3b3;fill-opacity:1;stroke:none;stroke-width:0.41151506;stroke-miterlimit:4;stroke-dasharray:none;stroke-dashoffset:0;stroke-opacity:1;paint-order:fill markers stroke"
       d="m -239.35231,-47.24523 a 15.848526,15.848521 0 0 0 -0.92708,-0.704866 15.848526,15.848521 0 0 0 -1.3503,-0.827857 15.848526,15.848521 0 0 0 -1.42679,-0.689362 15.848526,15.848521 0 0 0 -0.24908,-0.09095 39.628128,39.631706 0 0 0 3.09801,1.899626 39.628128,39.631706 0 0 0 0.85524,0.413412 z"
       id="path1146"
       inkscape:connector-curvature="0" />
    <path
       style="opacity:1;fill:#b3b3b3;fill-opacity:1;stroke:none;stroke-width:1.55533242;stroke-miterlimit:4;stroke-dasharray:none;stroke-dashoffset:0;stroke-opacity:1;paint-order:fill markers stroke"
       d="m -1004.9238,-160.76758 a 149.7756,149.78912 0 0 1 0.051,-0.0293 149.7756,149.78912 0 0 1 13.66597,-6.11718 149.7756,149.78912 0 0 1 14.20703,-4.72071 149.7756,149.78912 0 0 1 14.60742,-3.27929 149.7756,149.78912 0 0 1 14.86328,-1.80469 149.7756,149.78912 0 0 1 10.59375,-0.375 30,29.999993 0 0 1 -2.99414,-0.15039 30,29.999993 0 0 1 -2.96484,-0.44727 30,29.999993 0 0 1 -2.90625,-0.74218 30,29.999993 0 0 1 -2.81641,-1.02735 30,29.999993 0 0 1 -2.70117,-1.30468 30,29.999993 0 0 1 -2.55664,-1.56836 30,29.999993 0 0 1 -2.38672,-1.81446 30,29.999993 0 0 1 -2.19531,-2.04492 30,29.999993 0 0 1 -1.97852,-2.25195 30,29.999993 0 0 1 -1.74414,-2.43946 30,29.999993 0 0 1 -1.49219,-2.60156 30,29.999993 0 0 1 -1.2246,-2.73633 30,29.999993 0 0 1 -0.94532,-2.8457 30,29.999993 0 0 1 -0.65625,-2.92578 30,29.999993 0 0 1 -0.36133,-2.97656 30,29.999993 0 0 1 -0.0762,-2.12305 30,29.999993 0 0 1 0.15039,-2.99414 30,29.999993 0 0 1 0.44727,-2.96484 30,29.999993 0 0 1 0.74219,-2.90625 30,29.999993 0 0 1 1.02929,-2.81641 30,29.999993 0 0 1 1.30274,-2.70117 30,29.999993 0 0 1 1.56836,-2.55664 30,29.999993 0 0 1 1.81445,-2.38672 30,29.999993 0 0 1 2.04492,-2.19531 30,29.999993 0 0 1 2.25196,-1.97852 30,29.999993 0 0 1 2.43945,-1.74414 30,29.999993 0 0 1 2.60156,-1.49219 30,29.999993 0 0 1 2.73633,-1.22461 30,29.999993 0 0 1 2.8457,-0.94531 30,29.999993 0 0 1 2.92578,-0.65625 30,29.999993 0 0 1 2.97852,-0.36133 30,29.999993 0 0 1 2.12109,-0.0762 149.7756,149.78912 0 0 1 -14.95312,-0.74805 149.7756,149.78912 0 0 1 -14.80274,-2.23828 149.7756,149.78912 0 0 1 -14.50586,-3.70312 149.7756,149.78912 0 0 1 -14.06445,-5.13477 149.7756,149.78912 0 0 1 -10.24805,-4.94922 59.89994,59.899921 0 0 1 1.2637,0.95899 59.89994,59.899921 0 0 1 4.38084,4.08203 59.89994,59.899921 0 0 1 3.95117,4.49805 59.89994,59.899921 0 0 1 3.48242,4.87109 59.89994,59.899921 0 0 1 2.97852,5.19336 59.89994,59.899921 0 0 1 2.44726,5.46484 59.89994,59.899921 0 0 1 1.88672,5.68164 59.89994,59.899921 0 0 1 1.3125,5.8418 59.89994,59.899921 0 0 1 0.7207,5.94531 59.89994,59.899921 0 0 1 0.15039,4.23633 59.89994,59.899921 0 0 1 -0.29883,5.98047 59.89994,59.899921 0 0 1 -0.89453,5.91992 59.89994,59.899921 0 0 1 -1.48242,5.80078 59.89994,59.899921 0 0 1 -2.05273,5.625 59.89994,59.899921 0 0 1 -2.60352,5.39063 59.89994,59.899921 0 0 1 -3.13086,5.10547 59.89994,59.899921 0 0 1 -3.62304,4.76562 59.89994,59.899921 0 0 1 -4.08199,4.38086 59.89994,59.899921 0 0 1 -3.8203,3.35742 z"
       id="path1144"
       transform="matrix(0.26458334,0,0,0.26458334,6.5685909,53.965486)"
       inkscape:connector-curvature="0" />
    <path
       style="opacity:1;fill:#b3b3b3;fill-opacity:1;stroke:none;stroke-width:1.55533242;stroke-miterlimit:4;stroke-dasharray:none;stroke-dashoffset:0;stroke-opacity:1;paint-order:fill markers stroke"
       d="m -1020.1738,-151.69141 a 59.89994,59.899921 0 0 0 4.5078,-2.01953 59.89994,59.899921 0 0 0 5.1953,-2.97851 59.89994,59.899921 0 0 0 4.8691,-3.48243 59.89994,59.899921 0 0 0 0.6778,-0.5957 149.7756,149.78912 0 0 0 -12.9356,7.41992 149.7756,149.78912 0 0 0 -2.3144,1.65625 z"
       id="path1142"
       transform="matrix(0.26458334,0,0,0.26458334,6.5685909,53.965486)"
       inkscape:connector-curvature="0" />
    <path
       style="opacity:1;fill:#b3b3b3;fill-opacity:1;stroke:none;stroke-width:1.55533242;stroke-miterlimit:4;stroke-dasharray:none;stroke-dashoffset:0;stroke-opacity:1;paint-order:fill markers stroke"
       d="m -936.93555,122.48438 a 30,29.999993 0 0 0 -2.12109,0.0762 30,29.999993 0 0 0 -2.97852,0.36133 30,29.999993 0 0 0 -2.92578,0.65624 30,29.999993 0 0 0 -2.8457,0.94532 30,29.999993 0 0 0 -2.73633,1.22461 30,29.999993 0 0 0 -2.60156,1.49218 30,29.999993 0 0 0 -2.43945,1.74415 30,29.999993 0 0 0 -2.25196,1.98046 30,29.999993 0 0 0 -2.04492,2.19336 30,29.999993 0 0 0 -1.81445,2.38672 30,29.999993 0 0 0 -1.56836,2.55664 30,29.999993 0 0 0 -1.30274,2.70117 30,29.999993 0 0 0 -1.02929,2.81641 30,29.999993 0 0 0 -0.74219,2.90625 30,29.999993 0 0 0 -0.44727,2.96484 30,29.999993 0 0 0 -0.15039,2.99415 30,29.999993 0 0 0 0.0762,2.12304 30,29.999993 0 0 0 0.36133,2.97656 30,29.999993 0 0 0 0.65625,2.92579 30,29.999993 0 0 0 0.94532,2.8457 30,29.999993 0 0 0 1.2246,2.73633 30,29.999993 0 0 0 1.49219,2.60156 30,29.999993 0 0 0 1.74414,2.43945 30,29.999993 0 0 0 1.97852,2.25391 30,29.999993 0 0 0 2.19531,2.04297 30,29.999993 0 0 0 2.38672,1.81445 30,29.999993 0 0 0 2.55664,1.56836 30,29.999993 0 0 0 2.70117,1.30469 30,29.999993 0 0 0 2.81641,1.02734 30,29.999993 0 0 0 2.90625,0.74219 30,29.999993 0 0 0 2.96484,0.44726 30,29.999993 0 0 0 2.99414,0.1504 30,29.999993 0 0 0 2.12305,-0.0742 30,29.999993 0 0 0 2.97656,-0.36133 30,29.999993 0 0 0 2.92578,-0.65821 30,29.999993 0 0 0 2.84571,-0.94531 30,29.999993 0 0 0 2.73633,-1.22461 30,29.999993 0 0 0 2.60156,-1.49218 30,29.999993 0 0 0 2.43945,-1.74414 30,29.999993 0 0 0 2.25195,-1.97852 30,29.999993 0 0 0 2.04493,-2.19531 30,29.999993 0 0 0 1.81445,-2.38672 30,29.999993 0 0 0 1.56836,-2.55664 30,29.999993 0 0 0 1.30469,-2.69922 30,29.999993 0 0 0 1.02734,-2.81836 30,29.999993 0 0 0 0.74219,-2.9043 30,29.999993 0 0 0 0.44726,-2.96484 30,29.999993 0 0 0 0.15039,-2.99609 30,29.999993 0 0 0 -0.0742,-2.1211 30,29.999993 0 0 0 -0.36132,-2.97851 30,29.999993 0 0 0 -0.65821,-2.92579 30,29.999993 0 0 0 -0.94531,-2.8457 30,29.999993 0 0 0 -1.22461,-2.73633 30,29.999993 0 0 0 -1.49219,-2.60156 30,29.999993 0 0 0 -1.74414,-2.43945 30,29.999993 0 0 0 -1.97851,-2.25196 30,29.999993 0 0 0 -2.19532,-2.04492 30,29.999993 0 0 0 -2.38671,-1.81445 30,29.999993 0 0 0 -2.55664,-1.56836 30,29.999993 0 0 0 -2.69922,-1.30273 30,29.999993 0 0 0 -2.81836,-1.0293 30,29.999993 0 0 0 -2.9043,-0.74219 30,29.999993 0 0 0 -2.96484,-0.44726 30,29.999993 0 0 0 -2.9961,-0.15039 z"
       id="path1138"
       transform="matrix(0.26458334,0,0,0.26458334,6.5685909,53.965486)"
       inkscape:connector-curvature="0" />
    <path
       style="opacity:1;fill:#b3b3b3;fill-opacity:1;stroke:none;stroke-width:1.55533242;stroke-miterlimit:4;stroke-dasharray:none;stroke-dashoffset:0;stroke-opacity:1;paint-order:fill markers stroke"
       d="m -1005.5098,105.71094 a 59.89994,59.899921 0 0 0 -3.5039,-2.66406 59.89994,59.899921 0 0 0 -5.1035,-3.128911 59.89994,59.899921 0 0 0 -5.3926,-2.605469 59.89994,59.899921 0 0 0 -0.9414,-0.34375 149.7756,149.78912 0 0 0 11.709,7.17969 149.7756,149.78912 0 0 0 3.2324,1.5625 z"
       id="path1136"
       transform="matrix(0.26458334,0,0,0.26458334,6.5685909,53.965486)"
       inkscape:connector-curvature="0" />
    <path
       style="opacity:1;fill:#b3b3b3;fill-opacity:1;stroke:none;stroke-width:1.55533242;stroke-miterlimit:4;stroke-dasharray:none;stroke-dashoffset:0;stroke-opacity:1;paint-order:fill markers stroke"
       d="m -1004.9219,198.80859 a 149.7756,149.78912 0 0 1 0.049,-0.0273 149.7756,149.78912 0 0 1 13.66597,-6.11719 149.7756,149.78912 0 0 1 14.20703,-4.7207 149.7756,149.78912 0 0 1 14.60742,-3.2793 149.7756,149.78912 0 0 1 14.86328,-1.80468 149.7756,149.78912 0 0 1 10.59375,-0.375 30,29.999993 0 0 1 -2.99414,-0.1504 30,29.999993 0 0 1 -2.96484,-0.44726 30,29.999993 0 0 1 -2.90625,-0.74219 30,29.999993 0 0 1 -2.81641,-1.02734 30,29.999993 0 0 1 -2.70117,-1.30469 30,29.999993 0 0 1 -2.55664,-1.56836 30,29.999993 0 0 1 -2.38672,-1.81445 30,29.999993 0 0 1 -2.19531,-2.04297 30,29.999993 0 0 1 -1.97852,-2.25391 30,29.999993 0 0 1 -1.74414,-2.43945 30,29.999993 0 0 1 -1.49219,-2.60156 30,29.999993 0 0 1 -1.2246,-2.73633 30,29.999993 0 0 1 -0.94532,-2.8457 30,29.999993 0 0 1 -0.65625,-2.92579 30,29.999993 0 0 1 -0.36133,-2.97656 30,29.999993 0 0 1 -0.0762,-2.12304 30,29.999993 0 0 1 0.15039,-2.99415 30,29.999993 0 0 1 0.44727,-2.96484 30,29.999993 0 0 1 0.74219,-2.90625 30,29.999993 0 0 1 1.02929,-2.81641 30,29.999993 0 0 1 1.30274,-2.70117 30,29.999993 0 0 1 1.56836,-2.55664 30,29.999993 0 0 1 1.81445,-2.38672 30,29.999993 0 0 1 2.04492,-2.19336 30,29.999993 0 0 1 2.25196,-1.98046 30,29.999993 0 0 1 2.43945,-1.74415 30,29.999993 0 0 1 2.60156,-1.49218 30,29.999993 0 0 1 2.73633,-1.22461 30,29.999993 0 0 1 2.8457,-0.94532 30,29.999993 0 0 1 2.92578,-0.65624 30,29.999993 0 0 1 2.97852,-0.36133 30,29.999993 0 0 1 2.12109,-0.0762 149.7756,149.78912 0 0 1 -14.95312,-0.74805 149.7756,149.78912 0 0 1 -14.80274,-2.23828 149.7756,149.78912 0 0 1 -14.50586,-3.70313 149.7756,149.78912 0 0 1 -14.06445,-5.13476 149.7756,149.78912 0 0 1 -10.24805,-4.94922 59.89994,59.899921 0 0 1 1.2637,0.95898 59.89994,59.899921 0 0 1 4.38084,4.08203 59.89994,59.899921 0 0 1 3.95117,4.49805 59.89994,59.899921 0 0 1 3.48242,4.87109 59.89994,59.899921 0 0 1 2.97852,5.19336 59.89994,59.899921 0 0 1 2.44726,5.46485 59.89994,59.899921 0 0 1 1.88672,5.68164 59.89994,59.899921 0 0 1 1.3125,5.84179 59.89994,59.899921 0 0 1 0.7207,5.94532 59.89994,59.899921 0 0 1 0.15039,4.23633 59.89994,59.899921 0 0 1 -0.29883,5.98046 59.89994,59.899921 0 0 1 -0.89453,5.91993 59.89994,59.899921 0 0 1 -1.48242,5.80078 59.89994,59.899921 0 0 1 -2.05273,5.625 59.89994,59.899921 0 0 1 -2.60352,5.39257 59.89994,59.899921 0 0 1 -3.13086,5.10352 59.89994,59.899921 0 0 1 -3.62304,4.76563 59.89994,59.899921 0 0 1 -4.08199,4.38281 59.89994,59.899921 0 0 1 -3.8184,3.35351 z"
       id="path1134"
       transform="matrix(0.26458334,0,0,0.26458334,6.5685909,53.965486)"
       inkscape:connector-curvature="0" />
    <path
       style="opacity:1;fill:#b3b3b3;fill-opacity:1;stroke:none;stroke-width:1.55533242;stroke-miterlimit:4;stroke-dasharray:none;stroke-dashoffset:0;stroke-opacity:1;paint-order:fill markers stroke"
       d="m -1020.1738,207.88672 a 59.89994,59.899921 0 0 0 4.5078,-2.01953 59.89994,59.899921 0 0 0 5.1953,-2.97852 59.89994,59.899921 0 0 0 4.8691,-3.48242 59.89994,59.899921 0 0 0 0.6797,-0.59766 149.7756,149.78912 0 0 0 -12.9375,7.42188 149.7756,149.78912 0 0 0 -2.3144,1.65625 z"
       id="path1132"
       transform="matrix(0.26458334,0,0,0.26458334,6.5685909,53.965486)"
       inkscape:connector-curvature="0" />
    <path
       style="opacity:1;fill:#b3b3b3;fill-opacity:1;stroke:none;stroke-width:1.55533242;stroke-miterlimit:4;stroke-dasharray:none;stroke-dashoffset:0;stroke-opacity:1;paint-order:fill markers stroke"
       d="m -868.35742,199.26172 a 149.7756,149.78912 0 0 0 -10.25196,-4.95313 149.7756,149.78912 0 0 0 -14.06445,-5.13476 149.7756,149.78912 0 0 0 -14.50586,-3.70313 149.7756,149.78912 0 0 0 -14.80273,-2.23828 149.7756,149.78912 0 0 0 -14.95313,-0.74804 149.7756,149.78912 0 0 0 -10.59375,0.375 149.7756,149.78912 0 0 0 -14.86328,1.80468 149.7756,149.78912 0 0 0 -14.60742,3.2793 149.7756,149.78912 0 0 0 -14.20703,4.7207 149.7756,149.78912 0 0 0 -13.66597,6.11719 149.7756,149.78912 0 0 0 -0.049,0.0273 59.89994,59.899921 0 0 1 -0.6797,0.59766 59.89994,59.899921 0 0 1 -4.8691,3.48242 59.89994,59.899921 0 0 1 -5.1953,2.97852 59.89994,59.899921 0 0 1 -4.5078,2.01953 149.7756,149.78912 0 0 0 -9.8633,7.05273 149.7756,149.78912 0 0 0 -11.2481,9.88282 149.7756,149.78912 0 0 0 -10.205,10.95507 149.7756,149.78912 0 0 0 -9.0606,11.91993 149.7756,149.78912 0 0 0 -7.8242,12.76367 149.7756,149.78912 0 0 0 -6.5137,13.48242 149.7756,149.78912 0 0 0 -5.1328,14.06445 149.7756,149.78912 0 0 0 -3.7031,14.50781 149.7756,149.78912 0 0 0 -2.2383,14.80469 149.7756,149.78912 0 0 0 -0.748,14.95313 149.7756,149.78912 0 0 0 0.375,10.5957 149.7756,149.78912 0 0 0 1.8047,14.86328 149.7756,149.78912 0 0 0 3.2773,14.60938 149.7756,149.78912 0 0 0 4.7227,14.20898 149.7756,149.78912 0 0 0 6.1152,13.66602 149.7756,149.78912 0 0 0 7.4492,12.98828 149.7756,149.78912 0 0 0 8.709,12.17969 149.7756,149.78912 0 0 0 9.8808,11.24804 149.7756,149.78912 0 0 0 10.9532,10.20508 149.7756,149.78912 0 0 0 11.9179,9.0625 149.7756,149.78912 0 0 0 12.7637,7.82617 149.7756,149.78912 0 0 0 13.48048,6.51172 149.7756,149.78912 0 0 0 14.06445,5.13477 149.7756,149.78912 0 0 0 14.50586,3.70312 149.7756,149.78912 0 0 0 14.80274,2.23828 149.7756,149.78912 0 0 0 14.95312,0.74805 149.7756,149.78912 0 0 0 10.59571,-0.375 149.7756,149.78912 0 0 0 14.86132,-1.80469 149.7756,149.78912 0 0 0 14.60743,-3.27929 149.7756,149.78912 0 0 0 14.20898,-4.72071 149.7756,149.78912 0 0 0 13.66406,-6.11523 149.7756,149.78912 0 0 0 12.98633,-7.45117 149.7756,149.78912 0 0 0 12.17774,-8.70899 149.7756,149.78912 0 0 0 11.24804,-9.88086 149.7756,149.78912 0 0 0 10.20508,-10.95508 149.7756,149.78912 0 0 0 9.06055,-11.91992 149.7756,149.78912 0 0 0 7.82617,-12.76562 149.7756,149.78912 0 0 0 6.51172,-13.48242 149.7756,149.78912 0 0 0 5.13281,-14.06446 149.7756,149.78912 0 0 0 3.70508,-14.50586 149.7756,149.78912 0 0 0 2.23633,-14.80468 149.7756,149.78912 0 0 0 0.74804,-14.95508 149.7756,149.78912 0 0 0 -0.375,-10.59571 149.7756,149.78912 0 0 0 -1.80468,-14.86328 149.7756,149.78912 0 0 0 -3.27735,-14.60937 149.7756,149.78912 0 0 0 -4.7207,-14.20899 149.7756,149.78912 0 0 0 -6.11719,-13.66601 149.7756,149.78912 0 0 0 -7.44922,-12.98828 149.7756,149.78912 0 0 0 -8.70703,-12.17774 149.7756,149.78912 0 0 0 -9.88086,-11.25 149.7756,149.78912 0 0 0 -10.95508,-10.20508 149.7756,149.78912 0 0 0 -11.91796,-9.0625 149.7756,149.78912 0 0 0 -1.05469,-0.64648 59.89994,59.899921 0 0 1 -0.94141,-0.34375 59.89994,59.899921 0 0 1 -5.39258,-2.60547 59.89994,59.899921 0 0 1 -5.10351,-3.1289 59.89994,59.899921 0 0 1 -3.5,-2.66016 z"
       id="path1128"
       transform="matrix(0.26458334,0,0,0.26458334,6.5685909,53.965486)"
       inkscape:connector-curvature="0" />
    <path
       style="opacity:1;fill:#b3b3b3;fill-opacity:1;stroke:none;stroke-width:1.55533242;stroke-miterlimit:4;stroke-dasharray:none;stroke-dashoffset:0;stroke-opacity:1;paint-order:fill markers stroke"
       d="m -868.35742,199.26172 a 59.89994,59.899921 0 0 0 3.5,2.66016 59.89994,59.899921 0 0 0 5.10351,3.1289 59.89994,59.899921 0 0 0 5.39258,2.60547 59.89994,59.899921 0 0 0 0.94141,0.34375 149.7756,149.78912 0 0 0 -11.70899,-7.17773 149.7756,149.78912 0 0 0 -3.22851,-1.56055 z"
       id="path1126"
       transform="matrix(0.26458334,0,0,0.26458334,6.5685909,53.965486)"
       inkscape:connector-curvature="0" />
    <path
       style="opacity:1;fill:#b3b3b3;fill-opacity:1;stroke:none;stroke-width:1.55533242;stroke-miterlimit:4;stroke-dasharray:none;stroke-dashoffset:0;stroke-opacity:1;paint-order:fill markers stroke"
       d="m -868.95508,106.16406 a 149.7756,149.78912 0 0 1 -0.043,0.0254 149.7756,149.78912 0 0 1 -13.66406,6.11524 149.7756,149.78912 0 0 1 -14.20898,4.7207 149.7756,149.78912 0 0 1 -14.60743,3.2793 149.7756,149.78912 0 0 1 -14.86132,1.80469 149.7756,149.78912 0 0 1 -10.59571,0.375 30,29.999993 0 0 1 2.9961,0.15039 30,29.999993 0 0 1 2.96484,0.44726 30,29.999993 0 0 1 2.9043,0.74219 30,29.999993 0 0 1 2.81836,1.0293 30,29.999993 0 0 1 2.69922,1.30273 30,29.999993 0 0 1 2.55664,1.56836 30,29.999993 0 0 1 2.38671,1.81445 30,29.999993 0 0 1 2.19532,2.04492 30,29.999993 0 0 1 1.97851,2.25196 30,29.999993 0 0 1 1.74414,2.43945 30,29.999993 0 0 1 1.49219,2.60156 30,29.999993 0 0 1 1.22461,2.73633 30,29.999993 0 0 1 0.94531,2.8457 30,29.999993 0 0 1 0.65821,2.92579 30,29.999993 0 0 1 0.36132,2.97851 30,29.999993 0 0 1 0.0742,2.1211 30,29.999993 0 0 1 -0.15039,2.99609 30,29.999993 0 0 1 -0.44726,2.96484 30,29.999993 0 0 1 -0.74219,2.9043 30,29.999993 0 0 1 -1.02734,2.81836 30,29.999993 0 0 1 -1.30469,2.69922 30,29.999993 0 0 1 -1.56836,2.55664 30,29.999993 0 0 1 -1.81445,2.38672 30,29.999993 0 0 1 -2.04493,2.19531 30,29.999993 0 0 1 -2.25195,1.97852 30,29.999993 0 0 1 -2.43945,1.74414 30,29.999993 0 0 1 -2.60156,1.49218 30,29.999993 0 0 1 -2.73633,1.22461 30,29.999993 0 0 1 -2.84571,0.94531 30,29.999993 0 0 1 -2.92578,0.65821 30,29.999993 0 0 1 -2.97656,0.36133 30,29.999993 0 0 1 -2.12305,0.0742 149.7756,149.78912 0 0 1 14.95313,0.74804 149.7756,149.78912 0 0 1 14.80273,2.23828 149.7756,149.78912 0 0 1 14.50586,3.70313 149.7756,149.78912 0 0 1 14.06445,5.13476 149.7756,149.78912 0 0 1 10.25196,4.95313 59.89994,59.899921 0 0 1 -1.26758,-0.96289 59.89994,59.899921 0 0 1 -4.38086,-4.08203 59.89994,59.899921 0 0 1 -3.95117,-4.49805 59.89994,59.899921 0 0 1 -3.48242,-4.86914 59.89994,59.899921 0 0 1 -2.98047,-5.19531 59.89994,59.899921 0 0 1 -2.44531,-5.46485 59.89994,59.899921 0 0 1 -1.88672,-5.68164 59.89994,59.899921 0 0 1 -1.3125,-5.84179 59.89994,59.899921 0 0 1 -0.72071,-5.94336 59.89994,59.899921 0 0 1 -0.15039,-4.23828 59.89994,59.899921 0 0 1 0.29883,-5.98047 59.89994,59.899921 0 0 1 0.89453,-5.91993 59.89994,59.899921 0 0 1 1.48242,-5.80078 59.89994,59.899921 0 0 1 2.05274,-5.625 59.89994,59.899921 0 0 1 2.60351,-5.39062 59.89994,59.899921 0 0 1 3.13086,-5.10547 59.89994,59.899921 0 0 1 3.62305,-4.76563 59.89994,59.899921 0 0 1 4.08203,-4.38086 59.89994,59.899921 0 0 1 3.8125,-3.35156 z"
       id="path1124"
       transform="matrix(0.26458334,0,0,0.26458334,6.5685909,53.965486)"
       inkscape:connector-curvature="0" />
    <path
       style="opacity:1;fill:#b3b3b3;fill-opacity:1;stroke:none;stroke-width:1.55533242;stroke-miterlimit:4;stroke-dasharray:none;stroke-dashoffset:0;stroke-opacity:1;paint-order:fill markers stroke"
       d="m -853.70117,97.085938 a 59.89994,59.899921 0 0 0 -4.50586,2.015624 59.89994,59.899921 0 0 0 -5.19336,2.978518 59.89994,59.899921 0 0 0 -4.86914,3.48242 59.89994,59.899921 0 0 0 -0.68555,0.60156 149.7756,149.78912 0 0 0 12.94336,-7.425779 149.7756,149.78912 0 0 0 2.31055,-1.652343 z"
       id="path1122"
       transform="matrix(0.26458334,0,0,0.26458334,6.5685909,53.965486)"
       inkscape:connector-curvature="0" />
    <path
       style="opacity:1;fill:#b3b3b3;fill-opacity:1;stroke:none;stroke-width:1.55533242;stroke-miterlimit:4;stroke-dasharray:none;stroke-dashoffset:0;stroke-opacity:1;paint-order:fill markers stroke"
       d="m -868.35742,-160.31641 a 149.7756,149.78912 0 0 0 -10.25196,-4.95312 149.7756,149.78912 0 0 0 -14.06445,-5.13477 149.7756,149.78912 0 0 0 -14.50586,-3.70312 149.7756,149.78912 0 0 0 -14.80273,-2.23828 149.7756,149.78912 0 0 0 -14.95313,-0.74805 149.7756,149.78912 0 0 0 -10.59375,0.375 149.7756,149.78912 0 0 0 -14.86328,1.80469 149.7756,149.78912 0 0 0 -14.60742,3.27929 149.7756,149.78912 0 0 0 -14.20703,4.72071 149.7756,149.78912 0 0 0 -13.66597,6.11718 149.7756,149.78912 0 0 0 -0.051,0.0293 59.89994,59.899921 0 0 1 -0.6778,0.5957 59.89994,59.899921 0 0 1 -4.8691,3.48243 59.89994,59.899921 0 0 1 -5.1953,2.97851 59.89994,59.899921 0 0 1 -4.5078,2.01953 149.7756,149.78912 0 0 0 -9.8633,7.05274 149.7756,149.78912 0 0 0 -11.2481,9.88281 149.7756,149.78912 0 0 0 -10.205,10.95508 149.7756,149.78912 0 0 0 -9.0606,11.91992 149.7756,149.78912 0 0 0 -7.8242,12.763672 149.7756,149.78912 0 0 0 -6.5137,13.482422 149.7756,149.78912 0 0 0 -5.1328,14.064454 149.7756,149.78912 0 0 0 -3.7031,14.507812 149.7756,149.78912 0 0 0 -2.2383,14.804688 149.7756,149.78912 0 0 0 -0.748,14.953124 149.7756,149.78912 0 0 0 0.375,10.595704 149.7756,149.78912 0 0 0 1.8047,14.8632809 149.7756,149.78912 0 0 0 3.2773,14.6093751 149.7756,149.78912 0 0 0 4.7227,14.208984 149.7756,149.78912 0 0 0 6.1152,13.666016 149.7756,149.78912 0 0 0 7.4492,12.988281 149.7756,149.78912 0 0 0 8.709,12.179688 149.7756,149.78912 0 0 0 9.8808,11.248047 149.7756,149.78912 0 0 0 10.9532,10.205078 149.7756,149.78912 0 0 0 11.9179,9.0625 149.7756,149.78912 0 0 0 1.0547,0.646484 59.89994,59.899921 0 0 1 0.9414,0.34375 59.89994,59.899921 0 0 1 5.3926,2.605469 59.89994,59.899921 0 0 1 5.1035,3.128911 59.89994,59.899921 0 0 1 3.5039,2.66406 149.7756,149.78912 0 0 0 10.24808,4.94922 149.7756,149.78912 0 0 0 14.06445,5.13476 149.7756,149.78912 0 0 0 14.50586,3.70313 149.7756,149.78912 0 0 0 14.80274,2.23828 149.7756,149.78912 0 0 0 14.95312,0.74805 149.7756,149.78912 0 0 0 10.59571,-0.375 149.7756,149.78912 0 0 0 14.86132,-1.80469 149.7756,149.78912 0 0 0 14.60743,-3.2793 149.7756,149.78912 0 0 0 14.20898,-4.7207 149.7756,149.78912 0 0 0 13.66406,-6.11524 149.7756,149.78912 0 0 0 0.043,-0.0254 59.89994,59.899921 0 0 1 0.68555,-0.60156 59.89994,59.899921 0 0 1 4.86914,-3.48242 59.89994,59.899921 0 0 1 5.19336,-2.978518 59.89994,59.899921 0 0 1 4.50586,-2.015624 149.7756,149.78912 0 0 0 9.86719,-7.056641 149.7756,149.78912 0 0 0 11.24804,-9.880859 149.7756,149.78912 0 0 0 10.20508,-10.957032 149.7756,149.78912 0 0 0 9.06055,-11.917968 149.7756,149.78912 0 0 0 7.82617,-12.765626 149.7756,149.78912 0 0 0 6.51172,-13.482421 149.7756,149.78912 0 0 0 5.13281,-14.064453 149.7756,149.78912 0 0 0 3.70508,-14.507813 149.7756,149.78912 0 0 0 2.23633,-14.802734 149.7756,149.78912 0 0 0 0.74804,-14.955079 149.7756,149.78912 0 0 0 -0.375,-10.595703 149.7756,149.78912 0 0 0 -1.80468,-14.863281 149.7756,149.78912 0 0 0 -3.27735,-14.609375 149.7756,149.78912 0 0 0 -4.7207,-14.208984 149.7756,149.78912 0 0 0 -6.11719,-13.666016 149.7756,149.78912 0 0 0 -7.44922,-12.988283 149.7756,149.78912 0 0 0 -8.70703,-12.17773 149.7756,149.78912 0 0 0 -9.88086,-11.25 149.7756,149.78912 0 0 0 -10.95508,-10.20508 149.7756,149.78912 0 0 0 -11.91796,-9.0625 149.7756,149.78912 0 0 0 -1.05469,-0.64648 59.89994,59.899921 0 0 1 -0.94141,-0.34376 59.89994,59.899921 0 0 1 -5.39258,-2.60546 59.89994,59.899921 0 0 1 -5.10351,-3.12891 59.89994,59.899921 0 0 1 -3.5,-2.66016 z"
       id="path1118"
       transform="matrix(0.26458334,0,0,0.26458334,6.5685909,53.965486)"
       inkscape:connector-curvature="0" />
    <path
       style="opacity:1;fill:#b3b3b3;fill-opacity:1;stroke:none;stroke-width:1.55533242;stroke-miterlimit:4;stroke-dasharray:none;stroke-dashoffset:0;stroke-opacity:1;paint-order:fill markers stroke"
       d="m -868.35742,-160.31641 a 59.89994,59.899921 0 0 0 3.5,2.66016 59.89994,59.899921 0 0 0 5.10351,3.12891 59.89994,59.899921 0 0 0 5.39258,2.60546 59.89994,59.899921 0 0 0 0.94141,0.34376 149.7756,149.78912 0 0 0 -11.70899,-7.17774 149.7756,149.78912 0 0 0 -3.22851,-1.56055 z"
       id="path1116"
       transform="matrix(0.26458334,0,0,0.26458334,6.5685909,53.965486)"
       inkscape:connector-curvature="0" />
    <path
       style="opacity:1;fill:#b3b3b3;fill-opacity:1;stroke:none;stroke-width:1.55533242;stroke-miterlimit:4;stroke-dasharray:none;stroke-dashoffset:0;stroke-opacity:1;paint-order:fill markers stroke"
       d="m -868.95508,-253.41406 a 149.7756,149.78912 0 0 1 -0.043,0.0254 149.7756,149.78912 0 0 1 -13.66406,6.11523 149.7756,149.78912 0 0 1 -14.20898,4.72071 149.7756,149.78912 0 0 1 -14.60743,3.27929 149.7756,149.78912 0 0 1 -14.86132,1.80469 149.7756,149.78912 0 0 1 -10.59571,0.375 30,29.999993 0 0 1 2.9961,0.15039 30,29.999993 0 0 1 2.96484,0.44727 30,29.999993 0 0 1 2.9043,0.74218 30,29.999993 0 0 1 2.81836,1.0293 30,29.999993 0 0 1 2.69922,1.30273 30,29.999993 0 0 1 2.55664,1.56836 30,29.999993 0 0 1 2.38671,1.81446 30,29.999993 0 0 1 2.19532,2.04492 30,29.999993 0 0 1 1.97851,2.25195 30,29.999993 0 0 1 1.74414,2.43946 30,29.999993 0 0 1 1.49219,2.60156 30,29.999993 0 0 1 1.22461,2.73633 30,29.999993 0 0 1 0.94531,2.8457 30,29.999993 0 0 1 0.65821,2.92578 30,29.999993 0 0 1 0.36132,2.97852 30,29.999993 0 0 1 0.0742,2.12109 30,29.999993 0 0 1 -0.15039,2.99609 30,29.999993 0 0 1 -0.44726,2.96485 30,29.999993 0 0 1 -0.74219,2.90429 30,29.999993 0 0 1 -1.02734,2.81836 30,29.999993 0 0 1 -1.30469,2.69922 30,29.999993 0 0 1 -1.56836,2.55664 30,29.999993 0 0 1 -1.81445,2.38672 30,29.999993 0 0 1 -2.04493,2.19531 30,29.999993 0 0 1 -2.25195,1.97852 30,29.999993 0 0 1 -2.43945,1.74414 30,29.999993 0 0 1 -2.60156,1.49219 30,29.999993 0 0 1 -2.73633,1.22461 30,29.999993 0 0 1 -2.84571,0.94531 30,29.999993 0 0 1 -2.92578,0.6582 30,29.999993 0 0 1 -2.97656,0.36133 30,29.999993 0 0 1 -2.12305,0.0742 149.7756,149.78912 0 0 1 14.95313,0.74805 149.7756,149.78912 0 0 1 14.80273,2.23828 149.7756,149.78912 0 0 1 14.50586,3.70312 149.7756,149.78912 0 0 1 14.06445,5.13477 149.7756,149.78912 0 0 1 10.25196,4.95312 59.89994,59.899921 0 0 1 -1.26758,-0.96289 59.89994,59.899921 0 0 1 -4.38086,-4.08203 59.89994,59.899921 0 0 1 -3.95117,-4.49805 59.89994,59.899921 0 0 1 -3.48242,-4.87109 59.89994,59.899921 0 0 1 -2.98047,-5.19336 59.89994,59.899921 0 0 1 -2.44531,-5.46484 59.89994,59.899921 0 0 1 -1.88672,-5.68164 59.89994,59.899921 0 0 1 -1.3125,-5.8418 59.89994,59.899921 0 0 1 -0.72071,-5.94531 59.89994,59.899921 0 0 1 -0.15039,-4.23633 59.89994,59.899921 0 0 1 0.29883,-5.98047 59.89994,59.899921 0 0 1 0.89453,-5.91992 59.89994,59.899921 0 0 1 1.48242,-5.80078 59.89994,59.899921 0 0 1 2.05274,-5.625 59.89994,59.899921 0 0 1 2.60351,-5.39063 59.89994,59.899921 0 0 1 3.13086,-5.10547 59.89994,59.899921 0 0 1 3.62305,-4.76562 59.89994,59.899921 0 0 1 4.08203,-4.38086 59.89994,59.899921 0 0 1 3.8125,-3.35156 z"
       id="path1114"
       transform="matrix(0.26458334,0,0,0.26458334,6.5685909,53.965486)"
       inkscape:connector-curvature="0" />
    <path
       style="opacity:1;fill:#b3b3b3;fill-opacity:1;stroke:none;stroke-width:0.41151506;stroke-miterlimit:4;stroke-dasharray:none;stroke-dashoffset:0;stroke-opacity:1;paint-order:fill markers stroke"
       d="m -239.31097,-49.602707 a 15.848526,15.848521 0 0 0 -1.19218,0.533302 15.848526,15.848521 0 0 0 -1.37407,0.788064 15.848526,15.848521 0 0 0 -1.2883,0.921393 15.848526,15.848521 0 0 0 -0.18138,0.159163 39.628128,39.631706 0 0 0 3.4246,-1.964738 39.628128,39.631706 0 0 0 0.61133,-0.437184 z"
       id="path1112"
       inkscape:connector-curvature="0" />
    <path
       style="opacity:1;fill:#cc6666;fill-opacity:1;stroke:none;stroke-width:1.55533242;stroke-miterlimit:4;stroke-dasharray:none;stroke-dashoffset:0;stroke-opacity:1;paint-order:fill markers stroke"
       d="m -936.93555,-535.788 c -3.53457,-5e-5 -7.06803,-0.75885 -10.59375,-0.50888 -4.98141,0.35337 -9.94204,0.95569 -14.86328,1.80469 -4.92076,0.84889 -9.79598,1.94336 -14.60742,3.2793 -4.8114,1.33574 -9.553,2.91127 -14.20703,4.7207 -4.65445,1.80994 -9.21547,3.85155 -13.66597,6.11719 -4.4503,2.26502 -8.7845,4.7512 -12.9864,7.44922 -4.2019,2.69816 -8.2662,5.60478 -12.1777,8.70898 -3.9118,3.10468 -7.6658,6.40307 -11.2481,9.88282 -3.5821,3.47928 -6.9881,7.13553 -10.205,10.95507 -3.217,3.81913 -6.2409,7.79675 -9.0606,11.91797 -2.8192,4.1221 -5.4306,8.38264 -7.8242,12.76563 -2.3946,4.38273 -4.5686,8.88249 -6.5137,13.48242 -1.9443,4.59965 -3.6574,9.29366 -5.1328,14.06445 -1.4754,4.77118 -2.7113,9.61317 -3.7031,14.50782 -0.9924,4.89449 -1.7394,9.83556 -2.2383,14.80468 -0.4984,4.96879 -0.7481,9.9594 -0.748,14.95313 -10e-5,3.53522 0.125,7.06933 0.375,10.5957 0.3534,4.98142 0.9558,9.94204 1.8047,14.86328 0.8482,4.92139 1.942,9.79727 3.2773,14.60938 1.3364,4.8121 2.9126,9.55435 4.7227,14.20898 1.8093,4.65444 3.8503,9.21547 6.1152,13.66602 2.265,4.45091 4.7512,8.78576 7.4492,12.98828 2.6982,4.20256 5.6048,8.26753 8.709,12.17969 3.1041,3.91173 6.4018,7.66576 9.8808,11.24804 3.4787,3.58216 7.1343,6.9881 10.9532,10.20508 3.8191,3.21764 7.7967,6.24225 11.9179,9.0625 0.3507,0.21694 0.7022,0.43244 1.0547,0.64648 0.3148,0.11196 0.6286,0.22655 0.9414,0.34376 1.8399,0.77802 3.6396,1.6476 5.3926,2.60546 1.7523,0.95726 3.4555,2.00153 5.1035,3.12891 1.2002,0.84479 2.369,1.73341 3.5039,2.66406 3.3521,1.77898 6.77059,3.42991 10.24808,4.94922 4.59962,1.94501 9.29364,3.65874 14.06445,5.13477 4.77054,1.47543 9.61187,2.71135 14.50586,3.70312 4.89385,0.99241 9.83427,1.73943 14.80274,2.23828 4.96879,0.4985 7.83831,0.82433 12.83203,0.82422 3.53523,1e-4 9.19043,-0.20115 12.7168,-0.45117 4.98076,-0.35344 9.94072,-0.95575 14.86132,-1.80469 4.92076,-0.84889 9.79599,-1.94335 14.60743,-3.27929 4.81206,-1.33568 9.55431,-2.91122 14.20898,-4.72071 4.65376,-1.80936 9.21414,-3.85031 13.66406,-6.11523 l 0.043,-0.0254 c 0.22699,-0.20226 0.45551,-0.40278 0.68555,-0.60156 1.56399,-1.24124 3.18907,-2.4035 4.86914,-3.48243 1.68039,-1.07878 3.41368,-2.07286 5.19336,-2.97851 1.47362,-0.7335 2.97685,-1.40595 4.50586,-2.01563 3.383,-2.21799 6.67476,-4.57213 9.86719,-7.05664 3.9117,-3.10404 7.66573,-6.40178 11.24804,-9.88086 3.58222,-3.47991 6.98817,-7.13682 10.20508,-10.95703 3.21694,-3.81913 6.2409,-7.79675 9.06055,-11.91797 2.8199,-4.12206 5.43188,-8.38259 7.82617,-12.76562 2.39395,-4.38277 4.56724,-8.88253 6.51172,-13.48242 1.94429,-4.59965 3.65737,-9.29367 5.13281,-14.06446 1.47609,-4.77114 2.71266,-9.61312 3.70508,-14.50781 0.99175,-4.89453 1.73813,-9.8356 2.23633,-14.80469 0.49842,-4.96879 0.74808,-9.95939 0.74804,-14.95312 6e-5,-3.53522 -0.12501,-7.06934 -0.375,-10.59571 -0.35344,-4.98142 -0.95575,-9.94204 -1.80468,-14.86328 -0.84825,-4.92138 -1.94207,-9.79726 -3.27735,-14.60937 -1.33574,-4.81207 -2.91127,-9.55432 -4.7207,-14.20899 -1.80999,-4.65447 -3.85161,-9.21551 -6.11719,-13.66601 -2.26502,-4.45091 -4.75119,-8.78576 -7.44922,-12.98828 -2.69757,-4.20185 -5.60354,-8.26617 -8.70703,-12.17774 -3.10403,-3.9124 -6.40176,-7.66709 -9.88086,-11.25 -3.47931,-3.5822 -7.13557,-6.98815 -10.95508,-10.20508 -3.81911,-3.21764 -7.79673,-6.24225 -11.91796,-9.0625 -4.12145,-2.81989 -8.38133,-5.43187 -12.76368,-7.82617 -4.38214,-2.39395 -8.88125,-4.56723 -13.48047,-6.51172 -4.59962,-1.94501 -9.29364,-3.65874 -14.06445,-5.13476 -4.77054,-1.47544 -9.61187,-2.71136 -14.50586,-3.70313 -4.89385,-0.99241 -9.83426,-1.73943 -14.80273,-2.23828 -4.96879,-0.4985 -9.9594,0.13573 -14.95313,0.13583 z"
       id="path1108"
       transform="matrix(0.26458334,0,0,0.26458334,6.5685909,53.965486)"
       inkscape:connector-curvature="0"
       sodipodi:nodetypes="cccccccccccccccccccccccccccccccccccccccccccccccccccccccccccccccccccccccccc" />
    <ellipse
       style="opacity:0.84542583;fill:none;fill-opacity:1;stroke:#000000;stroke-width:0.79374999;stroke-miterlimit:4;stroke-dasharray:none;stroke-dashoffset:0;stroke-opacity:1;paint-order:fill markers stroke"
       id="path4733"
       cx="-608.18414"
       cy="157.47343"
       rx="7.9375"
       ry="7.9374981" />
    <ellipse
       style="opacity:0.84542583;fill:none;fill-opacity:1;stroke:#000000;stroke-width:0.79374999;stroke-miterlimit:4;stroke-dasharray:none;stroke-dashoffset:0;stroke-opacity:1;paint-order:fill markers stroke"
       id="path4735"
       cx="-608.18414"
       cy="157.47343"
       rx="15.848526"
       ry="15.848521" />
    <ellipse
       style="opacity:0.84542583;fill:none;fill-opacity:1;stroke:#000000;stroke-width:0.79374999;stroke-miterlimit:4;stroke-dasharray:none;stroke-dashoffset:0;stroke-opacity:1;paint-order:fill markers stroke"
       id="path4737"
       cx="-608.18414"
       cy="157.47343"
       rx="23.779602"
       ry="23.780752" />
    <ellipse
       style="opacity:0.84542583;fill:none;fill-opacity:1;stroke:#000000;stroke-width:0.79374999;stroke-miterlimit:4;stroke-dasharray:none;stroke-dashoffset:0;stroke-opacity:1;paint-order:fill markers stroke"
       id="path4739"
       cx="-608.18414"
       cy="157.47343"
       rx="39.628128"
       ry="39.631706" />
    <circle
       style="opacity:0.84542583;fill:none;fill-opacity:1;stroke:#000000;stroke-width:0.79374999;stroke-miterlimit:4;stroke-dasharray:none;stroke-dashoffset:0;stroke-opacity:1;paint-order:fill markers stroke"
       id="path4741"
       cx="-608.18414"
       cy="157.47343"
       r="63.417709" />
    <ellipse
       style="opacity:0.84542583;fill:none;fill-opacity:1;stroke:#000000;stroke-width:0.79374999;stroke-miterlimit:4;stroke-dasharray:none;stroke-dashoffset:0;stroke-opacity:1;paint-order:fill markers stroke"
       id="path4745"
       cx="-608.18414"
       cy="157.47343"
       rx="103.04942"
       ry="103.05771" />
    <path
       style="fill:none;stroke:#ffffff;stroke-width:3.91546273;stroke-linecap:butt;stroke-linejoin:miter;stroke-miterlimit:4;stroke-dasharray:none;stroke-opacity:1"
       d="m -222.124,-67.721551 -38.40988,38.63961"
       id="path1169"
       inkscape:connector-curvature="0" />
    <path
       inkscape:connector-curvature="0"
       id="path1186"
       d="m -260.64875,-67.606687 38.63962,38.409882"
       style="fill:none;stroke:#ffffff;stroke-width:3.91546273;stroke-linecap:butt;stroke-linejoin:miter;stroke-miterlimit:4;stroke-dasharray:none;stroke-opacity:1" />
  </g>
</svg>
