<?xml version="1.0" encoding="UTF-8" standalone="no"?>
<!-- Created with Inkscape (http://www.inkscape.org/) -->

<svg
   xmlns:dc="http://purl.org/dc/elements/1.1/"
   xmlns:cc="http://creativecommons.org/ns#"
   xmlns:rdf="http://www.w3.org/1999/02/22-rdf-syntax-ns#"
   xmlns:svg="http://www.w3.org/2000/svg"
   xmlns="http://www.w3.org/2000/svg"
   xmlns:xlink="http://www.w3.org/1999/xlink"
   xmlns:sodipodi="http://sodipodi.sourceforge.net/DTD/sodipodi-0.dtd"
   xmlns:inkscape="http://www.inkscape.org/namespaces/inkscape"
   width="46.910431mm"
   height="50.010227mm"
   viewBox="0 0 46.910431 50.010227"
   version="1.1"
   id="svg8"
   inkscape:version="0.92.2 (5c3e80d, 2017-08-06)"
   sodipodi:docname="rocketship1.svg">
  <defs
     id="defs2">
    <linearGradient
       inkscape:collect="always"
       id="linearGradient1317">
      <stop
         style="stop-color:#5555ff;stop-opacity:1"
         offset="0"
         id="stop1313" />
      <stop
         style="stop-color:#b380ff;stop-opacity:1"
         offset="1"
         id="stop1315" />
    </linearGradient>
    <linearGradient
       inkscape:collect="always"
       id="linearGradient1211">
      <stop
         style="stop-color:#d5e5ff;stop-opacity:1;"
         offset="0"
         id="stop1207" />
      <stop
         style="stop-color:#f6d5ff;stop-opacity:1"
         offset="1"
         id="stop1209" />
    </linearGradient>
    <linearGradient
       inkscape:collect="always"
       xlink:href="#linearGradient1211"
       id="linearGradient1213"
       x1="-546.98047"
       y1="394.94452"
       x2="-509.45328"
       y2="377.51938"
       gradientUnits="userSpaceOnUse" />
    <linearGradient
       inkscape:collect="always"
       xlink:href="#linearGradient1317"
       id="linearGradient1319"
       x1="-532.90662"
       y1="226.57047"
       x2="-532.82611"
       y2="338.82288"
       gradientUnits="userSpaceOnUse" />
    <linearGradient
       inkscape:collect="always"
       xlink:href="#linearGradient1317"
       id="linearGradient1339"
       x1="-527.55219"
       y1="344.19714"
       x2="-522.2489"
       y2="386.37103"
       gradientUnits="userSpaceOnUse" />
  </defs>
  <sodipodi:namedview
     id="base"
     pagecolor="#ffffff"
     bordercolor="#666666"
     borderopacity="1.0"
     inkscape:pageopacity="0.0"
     inkscape:pageshadow="2"
     inkscape:zoom="3.959798"
     inkscape:cx="107.38938"
     inkscape:cy="112.05684"
     inkscape:document-units="px"
     inkscape:current-layer="layer1"
     showgrid="true"
     inkscape:window-width="1920"
     inkscape:window-height="986"
     inkscape:window-x="-11"
     inkscape:window-y="-11"
     inkscape:window-maximized="1"
     inkscape:snap-smooth-nodes="true" />
  <metadata
     id="metadata5">
    <rdf:RDF>
      <cc:Work
         rdf:about="">
        <dc:format>image/svg+xml</dc:format>
        <dc:type
           rdf:resource="http://purl.org/dc/dcmitype/StillImage" />
        <dc:title></dc:title>
      </cc:Work>
    </rdf:RDF>
  </metadata>
  <g
     inkscape:label="Layer 1"
     inkscape:groupmode="layer"
     id="layer1"
     transform="translate(-80.385178,-119.2617)">
    <ellipse
       style="opacity:0.84542583;fill:none;fill-opacity:1;stroke:#000000;stroke-width:0.79374999;stroke-miterlimit:4;stroke-dasharray:none;stroke-dashoffset:0;stroke-opacity:1;paint-order:fill markers stroke"
       id="path4733"
       cx="-608.18414"
       cy="141.61964"
       rx="7.9375"
       ry="7.9374981" />
    <ellipse
       style="opacity:0.84542583;fill:none;fill-opacity:1;stroke:#000000;stroke-width:0.79374999;stroke-miterlimit:4;stroke-dasharray:none;stroke-dashoffset:0;stroke-opacity:1;paint-order:fill markers stroke"
       id="path4735"
       cx="-608.18414"
       cy="165.40567"
       rx="15.848526"
       ry="15.848521" />
    <ellipse
       style="opacity:0.84542583;fill:none;fill-opacity:1;stroke:#000000;stroke-width:0.79374999;stroke-miterlimit:4;stroke-dasharray:none;stroke-dashoffset:0;stroke-opacity:1;paint-order:fill markers stroke"
       id="path4737"
       cx="-608.18414"
       cy="157.47343"
       rx="23.779602"
       ry="23.780752" />
    <ellipse
       style="opacity:0.84542583;fill:none;fill-opacity:1;stroke:#000000;stroke-width:0.79374999;stroke-miterlimit:4;stroke-dasharray:none;stroke-dashoffset:0;stroke-opacity:1;paint-order:fill markers stroke"
       id="path4739"
       cx="-608.18414"
       cy="141.62248"
       rx="39.628128"
       ry="39.631706" />
    <circle
       style="opacity:0.84542583;fill:none;fill-opacity:1;stroke:#000000;stroke-width:0.79374999;stroke-miterlimit:4;stroke-dasharray:none;stroke-dashoffset:0;stroke-opacity:1;paint-order:fill markers stroke"
       id="path4741"
       cx="-608.18414"
       cy="117.83344"
       r="63.417709" />
    <ellipse
       style="opacity:0.84542583;fill:none;fill-opacity:1;stroke:#000000;stroke-width:0.79374999;stroke-miterlimit:4;stroke-dasharray:none;stroke-dashoffset:0;stroke-opacity:1;paint-order:fill markers stroke"
       id="path4745"
       cx="-608.18414"
       cy="78.19648"
       rx="103.04942"
       ry="103.05771" />
    <g
       id="g1344"
       transform="translate(244.81889,59.333835)"
       inkscape:export-xdpi="114.901"
       inkscape:export-ydpi="114.901">
      <path
         transform="scale(0.26458333)"
         inkscape:connector-curvature="0"
         id="path1205"
         d="m -535.35107,398.56687 c -3.36213,-0.34627 -6.15588,-1.04374 -9.06834,-2.26395 -5.29487,-2.21836 -10.02493,-6.1436 -13.29716,-11.03464 -0.84314,-1.26025 -2.76205,-4.94621 -2.76205,-5.30551 0,-0.14562 0.56978,-0.48366 1.86247,-1.10496 6.01469,-2.89084 12.36811,-4.70476 19.41387,-5.54275 2.7033,-0.32151 10.04987,-0.32151 12.75317,0 7.05641,0.83925 13.41699,2.65382 19.40003,5.53451 1.30055,0.62618 1.87631,0.96767 1.87631,1.11287 0,0.38016 -1.72435,3.70206 -2.65166,5.10833 -1.21305,1.83959 -2.063,2.89394 -3.64648,4.52337 -4.89462,5.03666 -11.02418,8.04981 -18.04657,8.87126 -1.42971,0.16725 -4.65093,0.22327 -5.83359,0.10147 z"
         style="opacity:1;fill:url(#linearGradient1213);fill-opacity:1;stroke:#000000;stroke-width:0.02525381;stroke-miterlimit:4;stroke-dasharray:none;stroke-dashoffset:0;stroke-opacity:1;paint-order:fill markers stroke" />
      <path
         transform="scale(0.26458333)"
         inkscape:connector-curvature="0"
         id="path1303"
         d="m -584.12729,352.92524 c 8.41272,-36.19279 17.70035,-62.94212 31.84477,-91.71614 6.81434,-13.86245 18.4312,-34.63011 19.3759,-34.63864 0.25642,-0.002 2.23982,2.969 4.40755,6.60293 14.6881,24.6227 26.42978,50.36204 35.54642,77.9225 4.41492,13.34672 11.83256,41.67 11.10388,42.39867 -0.23298,0.23298 -1.66146,-0.39559 -3.17441,-1.39681 -8.59946,-5.69085 -21.39828,-10.45295 -33.31027,-12.39387 l -7.69486,-1.25379 2.9323,-0.8658 c 6.8626,-2.02629 14.48541,-8.83368 17.72976,-15.8332 7.05358,-15.21773 0.51898,-33.28893 -14.5967,-40.36666 -4.05951,-1.90082 -5.89023,-2.31173 -11.37165,-2.5524 -11.51916,-0.50578 -20.15787,3.74918 -26.6992,13.15059 -5.69241,8.18131 -6.62241,20.62248 -2.22514,29.76692 3.64004,7.56975 9.82208,13.04677 17.91848,15.87504 l 2.53906,0.88696 -3.92857,0.51021 c -13.3101,1.72864 -27.75852,7.05586 -38.79097,14.30248 l -2.00525,1.31713 z"
         style="opacity:1;fill:url(#linearGradient1319);fill-opacity:1;stroke:#000000;stroke-width:0.14285715;stroke-miterlimit:4;stroke-dasharray:none;stroke-dashoffset:0;stroke-opacity:1;paint-order:fill markers stroke" />
      <path
         transform="scale(0.26458333)"
         inkscape:connector-curvature="0"
         id="path1331"
         d="m -621.36336,414.36663 c 0.8027,-5.65419 3.64552,-15.29492 6.32302,-21.44295 7.79581,-17.90062 21.45062,-32.93448 38.66905,-42.57442 30.55897,-17.1088 68.8631,-14.59443 96.90636,6.36115 16.92369,12.64638 28.83443,30.53386 33.72912,50.65422 0.81169,3.33658 1.66492,7.87558 1.50962,8.03088 -0.0558,0.0558 -1.91672,-0.5794 -4.13544,-1.4115 -8.75693,-3.28419 -18.42256,-6.27961 -27.00461,-8.36885 l -4.36497,-1.06263 -0.59725,-1.14246 c -0.32849,-0.62836 -1.46866,-2.44936 -2.53371,-4.04666 -9.49248,-14.23629 -24.45183,-23.6487 -41.61838,-26.18626 -4.06316,-0.60062 -12.67898,-0.5936 -16.7959,0.0137 -17.0112,2.50928 -32.07126,12.00266 -41.51948,26.17258 -1.06506,1.5973 -2.20522,3.4183 -2.53371,4.04666 l -0.59725,1.14246 -4.33232,1.05468 c -9.52332,2.31839 -21.45324,6.11813 -30.80351,9.81106 -0.44103,0.17419 -0.4635,0.0956 -0.30064,-1.05164 z"
         style="opacity:1;fill:url(#linearGradient1339);fill-opacity:1;stroke:#000000;stroke-width:0.05050763;stroke-miterlimit:4;stroke-dasharray:none;stroke-dashoffset:0;stroke-opacity:1;paint-order:fill markers stroke" />
    </g>
  </g>
</svg>
